<svg xmlns="http://www.w3.org/2000/svg" viewBox="0 0 339.58 359.67"><g id="Calque_2" data-name="Calque 2"><g id="Calque_1-2" data-name="Calque 1"><path d="M169.63,107.58h0a9.72,9.72,0,0,0,9.72-9.72V9.72A9.72,9.72,0,0,0,169.63,0h0a9.72,9.72,0,0,0-9.72,9.72V97.86A9.72,9.72,0,0,0,169.63,107.58Z" fill="#333"/><path d="M289.85,69.82a168.85,168.85,0,0,0-78-44.5,9.76,9.76,0,0,0-12.17,9.45h0A9.71,9.71,0,0,0,207,44.19c64.8,16.55,112.9,75.3,113.16,145.12.31,83.07-67.51,151-150.58,150.92C86.76,340.1,19.44,272.7,19.44,189.88c0-70.54,48.83-129.88,114.46-146a9.78,9.78,0,0,0,7.49-9.48h0a9.76,9.76,0,0,0-12.09-9.46,169.84,169.84,0,0,0-79.57,285A169.79,169.79,0,0,0,289.85,69.82Z" fill="#333"/><path d="M96.3,199.63,108,217.14l-68.88,9.21-9.54-14.27,34.92-60,11.71,17.5L52.36,207.37Z" fill="#333"/><path d="M89.82,126.37h19.4v127H89.82Z" fill="#333"/><path d="M286.7,207,262.85,169.2l11.71-17.51,34.92,60L299.93,226l-68.87-9.22,11.71-17.51Z" fill="#333"/><path d="M249.25,253.64h-19.4v-127h19.4Z" fill="#333"/><path d="M180.09,252.81H159.42a29.63,29.63,0,0,1-29.63-29.63V155.42a29.64,29.64,0,0,1,29.63-29.63H180a29.63,29.63,0,0,1,29.63,29.7l0,19.18-60.38,37.1v12.17a9.58,9.58,0,0,0,9.61,9.43h21.83a9.56,9.56,0,0,0,9.6-9.43c0-.06,0-.12,0-.17V209.32l19.44-11.66v25.52A29.63,29.63,0,0,1,180.09,252.81ZM158.82,145.24a9.55,9.55,0,0,0-9.59,9.41V189l41-25.19.05-9c0-.06,0-.11,0-.17a9.54,9.54,0,0,0-9.59-9.38Z" fill="#333"/></g></g></svg>